<svg version="1.1" id="Layer_1" xmlns="http://www.w3.org/2000/svg" xmlns:xlink="http://www.w3.org/1999/xlink" x="0px" y="0px"
	 width="100%" viewBox="0 0 1494 785" enable-background="new 0 0 1494 785" xml:space="preserve">
<path fill="#FFFFFF" opacity="1.000000" stroke="none" 
	d="
M1.000000,379.000000 
	C1.000000,253.011475 1.000000,127.022934 1.000000,1.017202 
	C498.943207,1.017202 996.886414,1.017202 1494.914795,1.017202 
	C1494.914795,262.586029 1494.914795,524.172119 1494.914795,785.879089 
	C997.000000,785.879089 499.000000,785.879089 1.000005,785.878479 
	C1.000000,660.222534 1.000000,534.567200 1.443254,408.452698 
	C7.544775,408.032959 13.204305,408.157837 18.860748,408.074127 
	C21.487591,408.035309 22.617666,408.907166 23.120419,411.652679 
	C24.256205,417.855194 25.442663,424.106934 27.364941,430.095825 
	C32.811756,447.065704 41.001919,462.524048 53.870964,475.142120 
	C53.935368,475.055054 53.770340,475.195343 53.888371,475.519470 
	C55.608364,477.708008 57.210327,479.572479 59.922199,482.728729 
	C54.559319,487.156586 49.267521,491.525757 43.335339,496.423645 
	C48.057941,500.091309 51.403629,502.689636 54.873100,505.202576 
	C54.996883,505.117218 54.730412,505.256561 54.866516,505.555817 
	C58.989346,508.801544 62.976070,511.748016 66.716850,514.512695 
	C67.560249,514.175842 67.939362,514.133545 68.152527,513.923157 
	C72.056549,510.069336 76.112846,506.349579 79.766357,502.269623 
	C82.068062,499.699249 83.884209,499.572723 86.950584,501.127289 
	C119.106880,517.429321 152.228043,519.062927 185.978027,506.741058 
	C198.183655,502.284912 209.657669,496.288300 219.213211,487.184143 
	C219.162445,487.117615 219.196411,487.281525 219.459824,487.223755 
	C219.933624,486.892029 220.143997,486.618103 220.228088,486.343201 
	C220.101776,486.342285 220.347687,486.400085 220.664841,486.310913 
	C222.532288,484.873993 224.082596,483.526184 225.991745,481.866425 
	C221.734222,477.903442 217.933243,474.365417 214.090729,470.889557 
	C214.049210,470.951721 214.172501,470.867126 214.067139,470.549561 
	C211.281006,467.346100 208.600220,464.460236 205.814392,461.461273 
	C200.438278,465.513214 195.609039,469.153015 190.827225,472.831238 
	C190.874649,472.869690 190.856339,472.748993 190.494293,472.809387 
	C179.507172,479.004089 167.980850,482.636810 155.666275,485.113647 
	C154.525345,485.201630 153.768845,485.324585 152.550262,485.370056 
	C109.297173,488.924377 71.750999,465.517059 56.529644,425.694397 
	C52.010471,413.871155 50.654415,401.528534 50.734634,388.649445 
	C50.806507,387.871765 50.784180,387.421204 50.870934,386.580658 
	C53.120644,377.157806 54.596394,367.900421 57.553234,359.143127 
	C62.333416,344.985718 71.829552,333.779175 82.257217,323.451111 
	C82.142212,323.447021 82.369377,323.410126 82.690659,323.310638 
	C83.554192,322.828796 84.117241,322.472595 84.635704,322.060333 
	C116.510521,296.714325 158.228271,294.241028 192.578842,315.797760 
	C197.033966,318.593597 201.113800,321.987427 204.804794,324.691986 
	C211.715424,317.835541 218.377045,311.226166 225.331329,304.326416 
	C223.771744,303.158264 222.083344,301.893646 220.328873,300.615601 
	C220.262787,300.602173 220.369232,300.684998 220.246048,300.377014 
	C218.849335,299.005463 217.645325,297.842926 216.292206,296.892731 
	C176.196884,268.736847 133.829544,264.392639 89.060890,284.691467 
	C86.667580,285.776642 83.901138,286.038849 81.187935,286.805664 
	C81.067467,286.927094 81.313751,286.678345 81.206696,286.378296 
	C79.854065,284.941864 78.608490,283.805511 77.246002,282.753662 
	C77.129089,282.838135 77.328026,282.629211 77.205437,282.327026 
	C75.375076,280.276184 73.680504,278.514465 71.957024,276.781433 
	C66.994385,271.791321 66.989807,271.795868 61.848511,276.706512 
	C62.042252,276.839264 61.648605,276.588623 61.315468,276.667419 
	C55.447136,281.078339 49.911934,285.410400 43.102703,290.739624 
	C49.192905,295.961731 54.230358,300.281158 59.282944,304.613556 
	C58.300610,306.044678 57.931767,306.793091 57.377079,307.359589 
	C38.630383,326.504608 27.081194,349.246399 22.834013,375.744751 
	C22.633348,376.996735 20.365070,378.752747 18.975601,378.833893 
	C13.000880,379.182831 6.994713,378.993347 1.000000,379.000000 
M129.179413,333.190796 
	C128.869186,333.012421 128.558960,332.834015 128.296570,332.784241 
	C128.296570,332.784241 128.335129,332.652557 128.064423,332.054291 
	C125.226730,330.249634 123.949638,324.961975 119.534180,326.908264 
	C114.037964,329.330902 108.993820,332.779175 103.862549,335.844055 
	C103.862549,335.844055 103.859673,335.720673 103.275993,335.809296 
	C102.871140,336.210815 102.466293,336.612305 102.003937,336.996765 
	C102.003937,336.996765 102.011192,337.056305 101.362961,337.246613 
	C99.795135,338.609772 98.227318,339.972931 96.179550,341.753387 
	C103.975746,348.960327 111.272217,355.705292 118.534218,362.351959 
	C118.534218,362.351959 118.605881,362.427521 118.747902,362.940796 
	C119.057953,363.089539 119.368004,363.238251 119.807411,363.198669 
	C119.807411,363.198669 119.624138,363.335052 119.761063,363.866516 
	C120.069206,364.036682 120.377342,364.206879 120.705910,364.234253 
	C120.705910,364.234253 120.590393,364.320648 120.728584,364.873688 
	C121.164963,365.218231 121.601349,365.562744 122.024391,365.982513 
	C122.024391,365.982513 122.097382,365.959961 122.382599,366.548767 
	C124.590523,368.364594 126.798439,370.180420 129.000000,372.000000 
	C129.000000,372.000000 129.003128,371.993744 129.321732,372.560150 
	C130.877426,373.707458 132.433121,374.854767 133.998779,376.001221 
	C133.998779,376.001221 133.999695,376.010803 134.275436,376.530090 
	C134.783524,376.799042 135.291611,377.067993 135.838333,377.170441 
	C135.838333,377.170441 135.671005,377.205353 135.899933,378.099335 
	C134.252853,378.641296 132.608719,379.643585 130.958221,379.654114 
	C114.161446,379.761566 97.362991,379.780914 80.566696,379.632935 
	C77.429581,379.605286 75.897972,380.444031 75.918541,383.724091 
	C75.961098,390.512268 75.944443,397.302185 75.832352,404.089386 
	C75.769188,407.913574 77.696396,408.636536 81.158417,408.603760 
	C97.788094,408.446503 114.420174,408.532898 131.051346,408.562256 
	C132.724030,408.565216 134.396347,408.766998 136.873901,408.929230 
	C129.840103,415.418640 123.648224,421.131317 117.142632,426.918243 
	C117.142632,426.918243 117.003159,427.208923 116.430656,427.436096 
	C115.490288,428.478973 114.549911,429.521851 113.611359,430.622864 
	C113.611359,430.622864 113.669067,430.630280 113.130569,430.778503 
	C112.974037,431.100555 112.817497,431.422638 112.787918,431.779114 
	C112.787918,431.779114 112.727547,431.662231 112.177338,431.779572 
	C112.004234,432.095215 111.831123,432.410889 111.805733,432.749512 
	C111.805733,432.749512 111.734917,432.617859 111.150978,432.708313 
	C110.772858,433.145264 110.394737,433.582214 110.000000,434.000000 
	C110.000000,434.000000 110.019257,434.016602 109.495781,434.242889 
	C109.185745,434.692688 108.875710,435.142456 108.719810,435.575012 
	C108.719810,435.575012 108.578079,435.612701 108.079842,435.728790 
	C107.922935,436.016052 107.766022,436.303345 107.793983,436.956757 
	C107.793983,436.956757 107.574539,436.610199 107.075745,436.733612 
	C106.916031,437.023285 106.756317,437.312958 106.893845,437.951355 
	C106.893845,437.951355 106.589394,437.599518 106.082550,437.734772 
	C105.920639,438.029633 105.758728,438.324524 106.025185,438.771973 
	C106.025185,438.771973 105.601074,438.600555 105.092407,438.735870 
	C104.928337,439.031189 104.764267,439.326477 104.543915,439.587585 
	C104.543915,439.587585 104.478790,439.577820 103.878830,439.807922 
	C101.433777,442.109314 98.988716,444.410675 96.052452,447.174377 
	C99.486923,449.594421 102.141464,451.464874 104.853767,453.200470 
	C104.853767,453.200470 104.707932,453.216217 104.918060,453.740814 
	C105.255623,453.884033 105.593178,454.027252 105.930237,454.080261 
	C105.930237,454.080261 105.848358,454.118134 106.205894,454.690643 
	C110.280922,456.866028 114.253990,459.281128 118.488213,461.082245 
	C119.904198,461.684570 122.517250,461.347443 123.679649,460.367737 
	C131.379730,453.878082 138.834045,447.096741 146.317993,440.102448 
	C146.317993,440.102448 146.319672,440.414429 146.992844,440.252258 
	C172.037277,420.959473 200.342987,410.536499 231.924820,409.020691 
	C235.378845,408.854919 238.832138,408.674133 242.541534,408.487427 
	C242.541534,398.849365 242.541534,389.600708 242.541534,379.513611 
	C239.610474,379.513611 236.809769,379.634613 234.022324,379.493591 
	C218.307358,378.698517 202.643097,376.838379 188.103546,370.715607 
	C176.052307,365.640717 164.688034,358.934509 153.006073,353.004059 
	C153.006073,353.004059 153.052399,352.974945 152.717575,352.396942 
	C145.253632,346.459747 137.789688,340.522583 130.227264,334.704407 
	C130.227264,334.704407 130.376694,334.665314 130.214569,334.140503 
	C129.900574,333.973419 129.586578,333.806366 129.220337,333.766815 
	C129.220337,333.766815 129.349380,333.718475 129.179413,333.190796 
M328.715027,328.759277 
	C328.715027,373.015503 328.715027,417.271759 328.715027,461.486938 
	C362.085358,461.486938 394.949615,461.486938 427.810852,461.486938 
	C427.810852,452.970886 427.810852,444.863373 427.810852,436.180542 
	C425.646545,436.180542 423.691589,436.180450 421.736633,436.180542 
	C401.419952,436.181335 381.103119,436.210388 360.786774,436.130737 
	C359.117615,436.124207 357.451355,435.378998 355.968292,434.059113 
	C355.968994,416.134644 355.999542,398.210114 355.961853,380.285736 
	C355.925934,363.198395 355.818970,346.111206 355.975769,328.284790 
	C354.975372,327.638062 353.974976,326.991333 352.057343,326.158051 
	C345.567230,326.152405 339.074615,326.052490 332.589233,326.224823 
	C331.367828,326.257294 330.175293,327.374695 328.715027,328.759277 
M579.994263,367.498993 
	C566.476685,336.384888 534.813599,320.177734 501.909943,327.530579 
	C464.491333,335.892334 442.307037,371.567841 450.681183,409.582855 
	C459.705566,450.549713 503.094696,473.524353 544.925842,456.322998 
	C578.239197,442.624298 593.214233,404.327423 579.994263,367.498993 
M1478.495850,461.888336 
	C1483.604858,461.888336 1488.713989,461.888336 1494.663452,461.888336 
	C1491.577515,454.124115 1488.627319,447.113403 1486.031250,439.973999 
	C1484.943481,436.982330 1483.371216,436.069794 1480.208130,436.097382 
	C1461.547852,436.260071 1442.885498,436.178162 1424.223755,436.178619 
	C1422.434204,436.178650 1420.644531,436.178619 1418.664429,436.178619 
	C1418.664429,425.911133 1418.664429,416.187744 1418.664429,405.929993 
	C1436.708862,405.929993 1454.447998,405.929993 1472.319092,405.929993 
	C1472.319092,397.032867 1472.319092,388.679352 1472.319092,379.826965 
	C1454.147949,379.826965 1436.406372,379.826965 1418.742432,379.826965 
	C1418.742432,370.262024 1418.742432,361.210297 1418.742432,351.882965 
	C1420.766968,351.882965 1422.412964,351.883087 1424.058838,351.882935 
	C1442.720581,351.881317 1461.382324,351.914154 1480.043579,351.817871 
	C1481.678467,351.809448 1484.342285,351.408600 1484.777710,350.419495 
	C1488.224487,342.590332 1491.246582,334.574188 1494.491089,326.383484 
	C1459.644531,326.383484 1425.563965,326.383484 1391.345215,326.383484 
	C1391.345215,371.585968 1391.345215,416.473053 1391.345215,461.888397 
	C1420.275269,461.888397 1448.886475,461.888397 1478.495850,461.888336 
M665.300232,433.639069 
	C646.942627,430.251648 635.990051,418.237854 633.563660,398.827454 
	C630.408386,373.585968 647.614563,353.890900 672.992554,353.567566 
	C684.921204,353.415588 695.530029,357.150146 705.259644,364.355011 
	C711.368103,357.660278 717.293091,351.166595 723.763184,344.075439 
	C722.772888,343.415466 721.896851,342.926422 721.127991,342.304901 
	C709.657898,333.033752 696.530457,327.836731 681.890747,326.486237 
	C655.213562,324.025360 632.990234,332.571960 617.719177,354.960907 
	C602.457886,377.335602 601.278015,401.854156 613.350830,425.695679 
	C636.195679,470.809967 692.634888,469.785736 721.373596,445.305756 
	C722.701172,444.174866 723.298584,441.556732 723.318909,439.621643 
	C723.472717,424.960449 723.397217,410.296814 723.393433,395.633942 
	C723.392944,393.713959 723.393372,391.794006 723.393372,389.948517 
	C705.624451,389.948517 688.574646,389.948517 670.596680,389.948517 
	C677.348083,396.672180 683.122009,403.166595 689.687378,408.726379 
	C694.982666,413.210632 696.574402,418.276245 696.092957,424.859497 
	C695.865662,427.967468 695.007996,429.739227 692.179382,430.931549 
	C683.772339,434.475189 675.067749,434.897308 665.300232,433.639069 
M1021.601013,326.078827 
	C967.572510,327.845673 939.704590,385.669312 966.006897,429.827026 
	C990.414001,470.803070 1043.797241,468.943909 1071.642822,445.496826 
	C1072.910645,444.429291 1073.694336,442.160309 1073.766357,440.412292 
	C1074.020264,434.256683 1073.864868,428.084229 1073.864868,421.918152 
	C1073.864868,411.304413 1073.864990,400.690674 1073.864990,390.026276 
	C1056.225342,390.026276 1039.097656,390.026276 1020.976196,390.026276 
	C1027.720215,396.686005 1033.449707,402.992310 1039.875000,408.484619 
	C1045.055054,412.912750 1047.024048,417.818085 1046.540527,424.534180 
	C1046.281372,428.134918 1045.060547,429.814850 1041.993652,431.214081 
	C1017.144104,442.551666 989.192261,428.176392 984.379028,401.488678 
	C979.584351,374.903503 997.359375,353.605530 1024.276123,353.586609 
	C1035.867798,353.578461 1046.177612,357.217896 1055.698486,364.413483 
	C1061.771484,357.753265 1067.766235,351.178802 1073.968750,344.376526 
	C1058.935059,331.272522 1041.765991,325.837402 1021.601013,326.078827 
M1220.678833,436.806305 
	C1206.475464,401.283081 1192.230957,365.776123 1178.141357,330.207825 
	C1176.919556,327.123718 1175.553345,325.775391 1172.060669,325.983276 
	C1166.250610,326.329132 1160.389038,326.335236 1154.579468,325.984863 
	C1150.490723,325.738281 1148.515625,327.055115 1146.965088,330.994263 
	C1132.692993,367.250061 1118.172729,403.408173 1103.736084,439.599152 
	C1100.858521,446.812866 1098.028442,454.045441 1094.935669,461.879120 
	C1104.493774,461.879120 1113.294067,461.986847 1122.084839,461.745575 
	C1123.210449,461.714722 1124.748291,460.072723 1125.302612,458.824921 
	C1127.327759,454.267334 1129.121704,449.597748 1130.792358,444.895630 
	C1131.734863,442.243134 1133.025635,440.992340 1136.136230,441.022034 
	C1153.960938,441.192169 1171.788940,441.193970 1189.613770,441.039276 
	C1192.547363,441.013794 1193.705200,442.153259 1194.590942,444.661438 
	C1196.307739,449.522217 1198.195435,454.330597 1200.242798,459.060883 
	C1200.737549,460.203796 1202.112793,461.743408 1203.114868,461.767212 
	C1212.010132,461.978729 1220.912598,461.890167 1230.558716,461.890167 
	C1227.132324,453.231903 1224.026978,445.384705 1220.678833,436.806305 
M897.234741,354.869385 
	C903.920898,357.665253 910.606995,360.461121 917.873535,363.499664 
	C923.205444,357.654144 929.130798,351.157928 935.046509,344.672302 
	C914.617981,323.660126 866.930115,316.532410 838.448242,344.274445 
	C811.137268,370.875916 810.620117,416.034760 837.274719,442.696045 
	C865.840454,471.268921 913.796448,464.888733 935.045959,443.327637 
	C929.040771,436.753754 923.028137,430.171722 916.985168,423.556488 
	C906.944092,431.392395 896.001892,434.695221 883.914429,434.286743 
	C868.143921,433.753845 855.447632,427.455200 849.130554,412.576691 
	C842.482849,396.919464 842.901245,381.099823 854.144104,367.324188 
	C865.179199,353.803131 880.192810,351.828217 897.234741,354.869385 
M1312.741577,387.500061 
	C1312.741577,375.736908 1312.741577,363.973785 1312.741577,351.613098 
	C1328.088135,351.613098 1342.795532,351.613098 1357.274780,351.613098 
	C1357.274780,342.767761 1357.274780,334.536774 1357.274780,326.271973 
	C1314.747681,326.271973 1272.644165,326.271973 1229.960815,326.271973 
	C1233.224365,334.488129 1236.233276,342.376892 1239.587402,350.116119 
	C1240.014160,351.100861 1242.236084,351.770996 1243.639404,351.794037 
	C1252.801880,351.944794 1261.968018,351.877441 1271.132935,351.880219 
	C1275.710938,351.881592 1280.288940,351.880463 1285.192383,351.880463 
	C1285.192383,388.855408 1285.192383,425.120331 1285.192383,461.630127 
	C1294.424805,461.630127 1303.314819,461.630127 1312.741455,461.630127 
	C1312.741455,437.069733 1312.741455,412.784912 1312.741577,387.500061 
M784.193726,350.500031 
	C784.193726,342.420715 784.193726,334.341370 784.193726,326.231689 
	C774.747742,326.231689 766.017578,326.231689 757.234619,326.231689 
	C757.234619,371.516876 757.234619,416.516449 757.234619,461.564209 
	C766.296997,461.564209 775.027832,461.564209 783.631897,461.564209 
	C783.879272,460.945709 784.104797,460.644836 784.105103,460.343689 
	C784.145508,424.062500 784.169189,387.781281 784.193726,350.500031 
z"/>
<path fill="#347BB4" opacity="1.000000" stroke="none" 
	d="
M153.012329,485.447540 
	C153.768845,485.324585 154.525345,485.201630 155.949524,485.371002 
	C163.682816,484.022827 170.946701,482.944763 177.745895,480.548248 
	C182.448181,478.890869 186.508926,475.413269 190.856339,472.748993 
	C190.856339,472.748993 190.874649,472.869690 191.226898,472.899902 
	C194.607880,471.230713 197.996368,469.948883 200.575119,467.727203 
	C203.868118,464.890259 206.381760,464.743225 209.430359,467.824860 
	C210.719238,469.127655 212.574615,469.870056 214.172485,470.867126 
	C214.172501,470.867126 214.049210,470.951721 214.073380,471.250244 
	C214.810181,472.606598 215.284744,474.064911 216.275940,474.654175 
	C221.024521,477.477234 221.375092,481.662994 220.347687,486.400085 
	C220.347687,486.400085 220.101776,486.342285 219.932770,486.337341 
	C219.574646,486.648743 219.385529,486.965149 219.196411,487.281525 
	C219.196411,487.281525 219.162445,487.117615 218.843445,487.129364 
	C217.653702,487.582428 216.751648,487.971619 215.917114,488.473175 
	C207.971024,493.248962 200.456772,499.030304 192.011536,502.629272 
	C174.004501,510.303101 155.006943,514.576294 135.297150,512.849426 
	C125.847839,512.021606 116.396370,509.994598 107.238281,507.455902 
	C99.971077,505.441376 93.116684,501.895996 86.144600,498.878754 
	C83.292625,497.644531 81.163467,498.019073 79.061630,500.375488 
	C76.514328,503.231232 73.678055,505.829285 70.966621,508.538635 
	C68.544441,510.958893 66.014030,511.465088 62.930637,509.521729 
	C60.333015,507.884552 57.473808,506.662445 54.730408,505.256561 
	C54.730412,505.256561 54.996883,505.117218 54.915943,504.841919 
	C47.075493,495.381256 47.169277,495.482666 56.522205,486.832458 
	C58.218956,485.263184 60.093903,482.079041 59.560005,480.365204 
	C58.899918,478.246368 55.810276,476.884338 53.770340,475.195343 
	C53.770340,475.195343 53.935368,475.055054 53.906864,474.766968 
	C53.436512,473.412659 53.233891,472.138275 52.515583,471.312500 
	C45.766388,463.553589 40.368355,455.092224 35.855980,445.731110 
	C30.466562,434.550507 26.548822,423.195770 24.902500,410.946228 
	C24.442492,407.523560 22.014902,405.961761 18.496666,406.002838 
	C12.665251,406.070953 6.832303,406.007843 1.000000,406.000000 
	C1.000000,397.979095 1.000000,389.958191 1.468526,381.463165 
	C7.430521,380.989807 12.925830,380.905548 18.416748,381.024292 
	C21.542671,381.091888 23.526833,379.952332 24.180489,376.793976 
	C24.914747,373.246185 25.572186,369.677826 26.449591,366.165039 
	C31.128183,347.433685 39.512608,330.599396 52.386429,316.117676 
	C61.867104,305.452850 61.898056,305.480377 52.083931,295.592316 
	C47.795860,291.271881 47.813110,290.717651 52.135284,286.344482 
	C55.328136,283.114014 58.479027,279.842102 61.648605,276.588623 
	C61.648605,276.588623 62.042252,276.839264 62.252266,276.836639 
	C66.851082,275.311340 70.139397,276.701904 72.966690,280.300110 
	C73.898796,281.486389 75.845337,281.875580 77.328018,282.629211 
	C77.328026,282.629211 77.129089,282.838135 77.156418,283.143219 
	C77.535011,285.836090 78.455154,287.496490 81.313751,286.678345 
	C81.313751,286.678345 81.067467,286.927094 81.131958,287.178284 
	C85.167084,289.978638 88.351830,286.893188 91.618668,285.689453 
	C96.534668,283.878021 100.988762,280.530396 105.998451,279.307831 
	C122.228477,275.347015 138.539658,272.630310 155.519562,274.807861 
	C174.343170,277.221924 191.716476,282.896423 207.595078,293.285370 
	C211.706802,295.975555 216.103455,298.230255 220.369232,300.684998 
	C220.369232,300.684998 220.262787,300.602173 220.233719,301.012573 
	C219.889648,303.695984 220.322601,306.534912 219.114258,308.132111 
	C215.955063,312.307953 212.312897,316.211761 208.356247,319.638550 
	C207.029785,320.787384 203.729324,321.029785 202.100769,320.191467 
	C197.761978,317.958008 194.091370,314.386292 189.701950,312.300110 
	C181.104080,308.213593 172.494736,303.286102 163.341187,301.463257 
	C153.000229,299.403961 142.045258,299.945099 131.377869,300.203583 
	C125.707283,300.341003 119.880363,301.690674 114.484764,303.543640 
	C107.954002,305.786438 101.472878,308.595947 95.593300,312.181793 
	C90.716583,315.156006 86.743042,319.611084 82.369385,323.410126 
	C82.369377,323.410126 82.142212,323.447021 81.896988,323.328064 
	C80.321358,324.091217 78.879066,324.843170 77.677856,325.875610 
	C65.790390,336.093048 58.497047,349.281433 53.991329,364.001953 
	C51.728096,371.396118 47.975677,378.784302 50.761852,386.970642 
	C50.784180,387.421204 50.806507,387.871765 50.375137,388.782013 
	C50.082726,396.726593 48.964176,404.518677 50.671818,411.632385 
	C54.223209,426.426727 59.508961,440.581329 69.665016,452.660919 
	C82.777199,468.256409 99.113518,479.088196 118.243073,484.607361 
	C128.461395,487.555511 139.884262,486.354706 150.769562,486.906403 
	C151.490646,486.942963 152.263535,485.957611 153.012329,485.447540 
z"/>
<path fill="#4E7FA6" opacity="1.000000" stroke="none" 
	d="
M61.315468,276.667419 
	C58.479027,279.842102 55.328136,283.114014 52.135284,286.344482 
	C47.813110,290.717651 47.795860,291.271881 52.083931,295.592316 
	C61.898056,305.480377 61.867104,305.452850 52.386429,316.117676 
	C39.512608,330.599396 31.128183,347.433685 26.449591,366.165039 
	C25.572186,369.677826 24.914747,373.246185 24.180489,376.793976 
	C23.526833,379.952332 21.542671,381.091888 18.416748,381.024292 
	C12.925830,380.905548 7.430521,380.989807 1.468526,380.994507 
	C1.000000,380.555542 1.000000,380.111115 1.000000,379.333313 
	C6.994713,378.993347 13.000880,379.182831 18.975601,378.833893 
	C20.365070,378.752747 22.633348,376.996735 22.834013,375.744751 
	C27.081194,349.246399 38.630383,326.504608 57.377079,307.359589 
	C57.931767,306.793091 58.300610,306.044678 59.282944,304.613556 
	C54.230358,300.281158 49.192905,295.961731 43.102703,290.739624 
	C49.911934,285.410400 55.447136,281.078339 61.315468,276.667419 
z"/>
<path fill="#4E7FA6" opacity="1.000000" stroke="none" 
	d="
M1.000000,406.333313 
	C6.832303,406.007843 12.665251,406.070953 18.496666,406.002838 
	C22.014902,405.961761 24.442492,407.523560 24.902500,410.946228 
	C26.548822,423.195770 30.466562,434.550507 35.855980,445.731110 
	C40.368355,455.092224 45.766388,463.553589 52.515583,471.312500 
	C53.233891,472.138275 53.436512,473.412659 53.842461,474.854065 
	C41.001919,462.524048 32.811756,447.065704 27.364941,430.095825 
	C25.442663,424.106934 24.256205,417.855194 23.120419,411.652679 
	C22.617666,408.907166 21.487591,408.035309 18.860748,408.074127 
	C13.204305,408.157837 7.544775,408.032959 1.443254,407.996735 
	C1.000000,407.555542 1.000000,407.111115 1.000000,406.333313 
z"/>
<path fill="#3B3E4C" opacity="1.000000" stroke="none" 
	d="
M580.122925,367.862854 
	C593.214233,404.327423 578.239197,442.624298 544.925842,456.322998 
	C503.094696,473.524353 459.705566,450.549713 450.681183,409.582855 
	C442.307037,371.567841 464.491333,335.892334 501.909943,327.530579 
	C534.813599,320.177734 566.476685,336.384888 580.122925,367.862854 
M486.250549,365.790619 
	C478.377441,375.345886 476.100342,386.459534 476.853485,398.535553 
	C477.915009,415.556244 489.761078,430.579376 505.704132,434.806030 
	C523.638611,439.560638 541.132874,433.108093 550.731384,418.059326 
	C555.826172,410.071625 557.480652,401.210846 557.209717,391.814545 
	C556.721680,374.889008 546.658936,359.808777 531.931335,354.328827 
	C515.853882,348.346619 498.307037,352.585510 486.250549,365.790619 
z"/>
<path fill="#3C3F4D" opacity="1.000000" stroke="none" 
	d="
M1477.996826,461.888367 
	C1448.886475,461.888397 1420.275269,461.888397 1391.345215,461.888397 
	C1391.345215,416.473053 1391.345215,371.585968 1391.345215,326.383484 
	C1425.563965,326.383484 1459.644531,326.383484 1494.491089,326.383484 
	C1491.246582,334.574188 1488.224487,342.590332 1484.777710,350.419495 
	C1484.342285,351.408600 1481.678467,351.809448 1480.043579,351.817871 
	C1461.382324,351.914154 1442.720581,351.881317 1424.058838,351.882935 
	C1422.412964,351.883087 1420.766968,351.882965 1418.742432,351.882965 
	C1418.742432,361.210297 1418.742432,370.262024 1418.742432,379.826965 
	C1436.406372,379.826965 1454.147949,379.826965 1472.319092,379.826965 
	C1472.319092,388.679352 1472.319092,397.032867 1472.319092,405.929993 
	C1454.447998,405.929993 1436.708862,405.929993 1418.664429,405.929993 
	C1418.664429,416.187744 1418.664429,425.911133 1418.664429,436.178619 
	C1420.644531,436.178619 1422.434204,436.178650 1424.223755,436.178619 
	C1442.885498,436.178162 1461.547852,436.260071 1480.208130,436.097382 
	C1483.371216,436.069794 1484.943481,436.982330 1486.031250,439.973999 
	C1488.627319,447.113403 1491.577515,454.124115 1494.663452,461.888336 
	C1488.713989,461.888336 1483.604858,461.888336 1477.996826,461.888367 
z"/>
<path fill="#3B3E4C" opacity="1.000000" stroke="none" 
	d="
M665.736816,433.707550 
	C675.067749,434.897308 683.772339,434.475189 692.179382,430.931549 
	C695.007996,429.739227 695.865662,427.967468 696.092957,424.859497 
	C696.574402,418.276245 694.982666,413.210632 689.687378,408.726379 
	C683.122009,403.166595 677.348083,396.672180 670.596680,389.948517 
	C688.574646,389.948517 705.624451,389.948517 723.393372,389.948517 
	C723.393372,391.794006 723.392944,393.713959 723.393433,395.633942 
	C723.397217,410.296814 723.472717,424.960449 723.318909,439.621643 
	C723.298584,441.556732 722.701172,444.174866 721.373596,445.305756 
	C692.634888,469.785736 636.195679,470.809967 613.350830,425.695679 
	C601.278015,401.854156 602.457886,377.335602 617.719177,354.960907 
	C632.990234,332.571960 655.213562,324.025360 681.890747,326.486237 
	C696.530457,327.836731 709.657898,333.033752 721.127991,342.304901 
	C721.896851,342.926422 722.772888,343.415466 723.763184,344.075439 
	C717.293091,351.166595 711.368103,357.660278 705.259644,364.355011 
	C695.530029,357.150146 684.921204,353.415588 672.992554,353.567566 
	C647.614563,353.890900 630.408386,373.585968 633.563660,398.827454 
	C635.990051,418.237854 646.942627,430.251648 665.736816,433.707550 
z"/>
<path fill="#3C3F4C" opacity="1.000000" stroke="none" 
	d="
M1022.083313,326.077576 
	C1041.765991,325.837402 1058.935059,331.272522 1073.968750,344.376526 
	C1067.766235,351.178802 1061.771484,357.753265 1055.698486,364.413483 
	C1046.177612,357.217896 1035.867798,353.578461 1024.276123,353.586609 
	C997.359375,353.605530 979.584351,374.903503 984.379028,401.488678 
	C989.192261,428.176392 1017.144104,442.551666 1041.993652,431.214081 
	C1045.060547,429.814850 1046.281372,428.134918 1046.540527,424.534180 
	C1047.024048,417.818085 1045.055054,412.912750 1039.875000,408.484619 
	C1033.449707,402.992310 1027.720215,396.686005 1020.976196,390.026276 
	C1039.097656,390.026276 1056.225342,390.026276 1073.864990,390.026276 
	C1073.864990,400.690674 1073.864868,411.304413 1073.864868,421.918152 
	C1073.864868,428.084229 1074.020264,434.256683 1073.766357,440.412292 
	C1073.694336,442.160309 1072.910645,444.429291 1071.642822,445.496826 
	C1043.797241,468.943909 990.414001,470.803070 966.006897,429.827026 
	C939.704590,385.669312 967.572510,327.845673 1022.083313,326.077576 
z"/>
<path fill="#3B3E4C" opacity="1.000000" stroke="none" 
	d="
M1220.800171,437.171936 
	C1224.026978,445.384705 1227.132324,453.231903 1230.558716,461.890167 
	C1220.912598,461.890167 1212.010132,461.978729 1203.114868,461.767212 
	C1202.112793,461.743408 1200.737549,460.203796 1200.242798,459.060883 
	C1198.195435,454.330597 1196.307739,449.522217 1194.590942,444.661438 
	C1193.705200,442.153259 1192.547363,441.013794 1189.613770,441.039276 
	C1171.788940,441.193970 1153.960938,441.192169 1136.136230,441.022034 
	C1133.025635,440.992340 1131.734863,442.243134 1130.792358,444.895630 
	C1129.121704,449.597748 1127.327759,454.267334 1125.302612,458.824921 
	C1124.748291,460.072723 1123.210449,461.714722 1122.084839,461.745575 
	C1113.294067,461.986847 1104.493774,461.879120 1094.935669,461.879120 
	C1098.028442,454.045441 1100.858521,446.812866 1103.736084,439.599152 
	C1118.172729,403.408173 1132.692993,367.250061 1146.965088,330.994263 
	C1148.515625,327.055115 1150.490723,325.738281 1154.579468,325.984863 
	C1160.389038,326.335236 1166.250610,326.329132 1172.060669,325.983276 
	C1175.553345,325.775391 1176.919556,327.123718 1178.141357,330.207825 
	C1192.230957,365.776123 1206.475464,401.283081 1220.800171,437.171936 
M1144.980469,409.272980 
	C1144.533691,410.616547 1144.086914,411.960114 1143.635376,413.318054 
	C1156.922729,413.318054 1169.756470,413.318054 1183.021729,413.318054 
	C1176.502808,396.583710 1170.178101,380.347656 1163.443848,363.060333 
	C1157.061279,379.006317 1151.144775,393.788239 1144.980469,409.272980 
z"/>
<path fill="#337BB5" opacity="1.000000" stroke="none" 
	d="
M117.003159,427.208923 
	C117.003159,427.208923 117.142632,426.918243 117.685638,426.908020 
	C118.709328,426.786346 119.301857,426.817780 119.653969,426.542084 
	C125.368431,422.068451 131.193787,417.714203 136.597519,412.888885 
	C137.450577,412.127106 136.642365,409.097412 136.005188,407.331787 
	C135.822906,406.826721 133.542877,406.997681 132.224579,406.996033 
	C116.425941,406.976166 100.627258,406.966858 84.828636,406.992157 
	C80.820114,406.998566 77.364372,406.139130 77.126587,401.339142 
	C76.896629,396.696716 76.747841,391.995270 77.261261,387.397675 
	C77.472488,385.506195 79.233551,382.619476 80.767822,382.267029 
	C85.063431,381.280273 89.612000,381.058746 94.054253,381.109039 
	C107.567711,381.262024 121.077545,381.721405 134.590790,381.934448 
	C135.664017,381.951385 136.752640,380.990997 137.834106,380.484833 
	C137.113083,379.391663 136.392044,378.298523 135.671005,377.205353 
	C135.671005,377.205353 135.838333,377.170441 135.755035,376.940338 
	C135.114395,376.477081 134.557037,376.243958 133.999695,376.010803 
	C133.999695,376.010803 133.998779,376.001221 133.965576,375.646027 
	C132.289276,374.191803 130.646194,373.092773 129.003113,371.993744 
	C129.003128,371.993744 129.000000,372.000000 128.971146,371.649597 
	C126.660652,369.519440 124.379013,367.739685 122.097382,365.959961 
	C122.097382,365.959961 122.024391,365.982513 121.986488,365.635193 
	C121.495850,364.965454 121.043121,364.643066 120.590393,364.320648 
	C120.590393,364.320648 120.705910,364.234253 120.688515,363.997589 
	C120.322128,363.618958 119.973137,363.476990 119.624138,363.335052 
	C119.624138,363.335052 119.807411,363.198669 119.736732,362.983765 
	C119.312668,362.655090 118.959274,362.541290 118.605881,362.427490 
	C118.605881,362.427521 118.534218,362.351959 118.598183,362.040283 
	C114.667351,357.545074 110.873108,353.142639 106.617317,349.244049 
	C102.894051,345.833282 99.889397,342.512573 102.011192,337.056305 
	C102.011192,337.056305 102.003937,336.996765 102.339165,336.971680 
	C103.069481,336.537933 103.464569,336.129303 103.859665,335.720673 
	C103.859673,335.720673 103.862549,335.844055 104.186707,335.857391 
	C108.647263,333.926941 112.882500,332.164612 116.888611,329.981750 
	C120.067177,328.249817 122.495461,327.563843 124.512497,331.544647 
	C124.921715,332.352234 127.017090,332.305481 128.335129,332.652557 
	C128.335129,332.652557 128.296570,332.784241 128.305771,333.021637 
	C128.659775,333.412201 129.004578,333.565338 129.349380,333.718475 
	C129.349380,333.718475 129.220337,333.766815 129.272110,334.008606 
	C129.674820,334.388702 130.025757,334.527008 130.376694,334.665314 
	C130.376694,334.665314 130.227264,334.704407 130.270905,335.010040 
	C133.719727,338.785034 136.814133,342.654205 140.617813,345.610901 
	C144.390900,348.543854 148.878281,350.557892 153.052399,352.974945 
	C153.052399,352.974945 153.006073,353.004059 153.037186,353.331818 
	C154.773727,355.132233 156.276352,356.991608 158.219650,358.010651 
	C166.667496,362.440704 175.068771,367.030609 183.812210,370.810028 
	C198.825928,377.299774 214.577179,380.849884 231.029709,381.057190 
	C234.252289,381.097809 237.465576,381.876801 240.991974,382.357300 
	C240.991974,389.688629 241.176529,396.493622 240.829971,403.271454 
	C240.763870,404.564331 238.779922,406.497528 237.369324,406.835571 
	C234.030060,407.635803 230.509277,407.862061 227.051926,407.956451 
	C202.760651,408.619354 180.771088,416.699982 160.235413,429.045471 
	C155.154800,432.099823 150.935104,436.586273 146.319672,440.414429 
	C146.319672,440.414429 146.317993,440.102448 145.969986,440.145905 
	C144.155807,440.891846 142.461426,441.325317 141.262283,442.342621 
	C135.574707,447.167572 129.852951,451.976654 124.495377,457.155548 
	C121.944778,459.621094 120.001671,460.306183 116.728493,458.491150 
	C113.336479,456.610229 109.493874,455.541901 105.848358,454.118134 
	C105.848358,454.118134 105.930237,454.080261 105.827347,453.858063 
	C105.385620,453.496002 105.046776,453.356110 104.707932,453.216217 
	C104.707932,453.216217 104.853767,453.200470 104.781143,452.911743 
	C103.109398,450.373840 101.510277,448.124634 100.328453,446.462402 
	C101.978760,443.724884 103.228775,441.651337 104.478790,439.577820 
	C104.478790,439.577820 104.543915,439.587585 104.881912,439.619812 
	C105.346970,439.301514 105.474030,438.951050 105.601074,438.600555 
	C105.601074,438.600555 106.025185,438.771973 106.121025,438.711884 
	C106.341042,438.301025 106.465225,437.950287 106.589401,437.599518 
	C106.589394,437.599518 106.893845,437.951355 107.053238,437.801422 
	C107.333267,437.304382 107.453911,436.957306 107.574547,436.610199 
	C107.574539,436.610199 107.793983,436.956757 108.008194,436.803955 
	C108.340965,436.304993 108.459526,435.958862 108.578079,435.612701 
	C108.578079,435.612701 108.719810,435.575012 108.968254,435.610016 
	C109.484215,435.102203 109.751724,434.559387 110.019241,434.016602 
	C110.019257,434.016602 110.000000,434.000000 110.326012,433.975830 
	C111.012985,433.507080 111.373947,433.062469 111.734909,432.617859 
	C111.734917,432.617859 111.805733,432.749512 112.034508,432.718628 
	C112.418030,432.345886 112.572784,432.004059 112.727539,431.662231 
	C112.727547,431.662231 112.787918,431.779114 113.027496,431.730865 
	C113.401085,431.331848 113.535080,430.981079 113.669075,430.630280 
	C113.669067,430.630280 113.611359,430.622864 113.978584,430.711700 
	C115.231590,429.603333 116.117371,428.406128 117.003159,427.208923 
z"/>
<path fill="#3C3F4C" opacity="1.000000" stroke="none" 
	d="
M896.816895,354.786194 
	C880.192810,351.828217 865.179199,353.803131 854.144104,367.324188 
	C842.901245,381.099823 842.482849,396.919464 849.130554,412.576691 
	C855.447632,427.455200 868.143921,433.753845 883.914429,434.286743 
	C896.001892,434.695221 906.944092,431.392395 916.985168,423.556488 
	C923.028137,430.171722 929.040771,436.753754 935.045959,443.327637 
	C913.796448,464.888733 865.840454,471.268921 837.274719,442.696045 
	C810.620117,416.034760 811.137268,370.875916 838.448242,344.274445 
	C866.930115,316.532410 914.617981,323.660126 935.046509,344.672302 
	C929.130798,351.157928 923.205444,357.654144 917.873535,363.499664 
	C910.606995,360.461121 903.920898,357.665253 896.816895,354.786194 
z"/>
<path fill="#3C3F4D" opacity="1.000000" stroke="none" 
	d="
M1312.741455,388.000061 
	C1312.741455,412.784912 1312.741455,437.069733 1312.741455,461.630127 
	C1303.314819,461.630127 1294.424805,461.630127 1285.192383,461.630127 
	C1285.192383,425.120331 1285.192383,388.855408 1285.192383,351.880463 
	C1280.288940,351.880463 1275.710938,351.881592 1271.132935,351.880219 
	C1261.968018,351.877441 1252.801880,351.944794 1243.639404,351.794037 
	C1242.236084,351.770996 1240.014160,351.100861 1239.587402,350.116119 
	C1236.233276,342.376892 1233.224365,334.488129 1229.960815,326.271973 
	C1272.644165,326.271973 1314.747681,326.271973 1357.274780,326.271973 
	C1357.274780,334.536774 1357.274780,342.767761 1357.274780,351.613098 
	C1342.795532,351.613098 1328.088135,351.613098 1312.741577,351.613098 
	C1312.741577,363.973785 1312.741577,375.736908 1312.741455,388.000061 
z"/>
<path fill="#3C3F4C" opacity="1.000000" stroke="none" 
	d="
M355.783752,434.976990 
	C357.451355,435.378998 359.117615,436.124207 360.786774,436.130737 
	C381.103119,436.210388 401.419952,436.181335 421.736633,436.180542 
	C423.691589,436.180450 425.646545,436.180542 427.810852,436.180542 
	C427.810852,444.863373 427.810852,452.970886 427.810852,461.486938 
	C394.949615,461.486938 362.085358,461.486938 328.715027,461.486938 
	C328.715027,417.271759 328.715027,373.015503 329.312866,328.378235 
	C336.221527,327.997772 342.535004,328.095062 348.841187,327.923706 
	C350.232239,327.885895 351.597443,326.896057 352.974579,326.344574 
	C353.974976,326.991333 354.975372,327.638062 355.485809,328.771118 
	C354.664825,330.127472 354.045685,330.997040 354.044373,331.867554 
	C353.994232,365.062317 353.982483,398.257202 354.074921,431.451752 
	C354.078186,432.628418 355.189087,433.801971 355.783752,434.976990 
z"/>
<path fill="#3A3D4B" opacity="1.000000" stroke="none" 
	d="
M784.193726,351.000061 
	C784.169189,387.781281 784.145508,424.062500 784.105103,460.343689 
	C784.104797,460.644836 783.879272,460.945709 783.631897,461.564209 
	C775.027832,461.564209 766.296997,461.564209 757.234619,461.564209 
	C757.234619,416.516449 757.234619,371.516876 757.234619,326.231689 
	C766.017578,326.231689 774.747742,326.231689 784.193726,326.231689 
	C784.193726,334.341370 784.193726,342.420715 784.193726,351.000061 
z"/>
<path fill="#44779B" opacity="1.000000" stroke="none" 
	d="
M146.656250,440.333313 
	C150.935104,436.586273 155.154800,432.099823 160.235413,429.045471 
	C180.771088,416.699982 202.760651,408.619354 227.051926,407.956451 
	C230.509277,407.862061 234.030060,407.635803 237.369324,406.835571 
	C238.779922,406.497528 240.763870,404.564331 240.829971,403.271454 
	C241.176529,396.493622 240.991974,389.688629 240.991974,382.357300 
	C237.465576,381.876801 234.252289,381.097809 231.029709,381.057190 
	C214.577179,380.849884 198.825928,377.299774 183.812210,370.810028 
	C175.068771,367.030609 166.667496,362.440704 158.219650,358.010651 
	C156.276352,356.991608 154.773727,355.132233 153.043854,353.305298 
	C164.688034,358.934509 176.052307,365.640717 188.103546,370.715607 
	C202.643097,376.838379 218.307358,378.698517 234.022324,379.493591 
	C236.809769,379.634613 239.610474,379.513611 242.541534,379.513611 
	C242.541534,389.600708 242.541534,398.849365 242.541534,408.487427 
	C238.832138,408.674133 235.378845,408.854919 231.924820,409.020691 
	C200.342987,410.536499 172.037277,420.959473 146.656250,440.333313 
z"/>
<path fill="#44779B" opacity="1.000000" stroke="none" 
	d="
M135.785461,377.652344 
	C136.392044,378.298523 137.113083,379.391663 137.834106,380.484833 
	C136.752640,380.990997 135.664017,381.951385 134.590790,381.934448 
	C121.077545,381.721405 107.567711,381.262024 94.054253,381.109039 
	C89.612000,381.058746 85.063431,381.280273 80.767822,382.267029 
	C79.233551,382.619476 77.472488,385.506195 77.261261,387.397675 
	C76.747841,391.995270 76.896629,396.696716 77.126587,401.339142 
	C77.364372,406.139130 80.820114,406.998566 84.828636,406.992157 
	C100.627258,406.966858 116.425941,406.976166 132.224579,406.996033 
	C133.542877,406.997681 135.822906,406.826721 136.005188,407.331787 
	C136.642365,409.097412 137.450577,412.127106 136.597519,412.888885 
	C131.193787,417.714203 125.368431,422.068451 119.653969,426.542084 
	C119.301857,426.817780 118.709328,426.786346 117.842499,426.870880 
	C123.648224,421.131317 129.840103,415.418640 136.873901,408.929230 
	C134.396347,408.766998 132.724030,408.565216 131.051346,408.562256 
	C114.420174,408.532898 97.788094,408.446503 81.158417,408.603760 
	C77.696396,408.636536 75.769188,407.913574 75.832352,404.089386 
	C75.944443,397.302185 75.961098,390.512268 75.918541,383.724091 
	C75.897972,380.444031 77.429581,379.605286 80.566696,379.632935 
	C97.362991,379.780914 114.161446,379.761566 130.958221,379.654114 
	C132.608719,379.643585 134.252853,378.641296 135.785461,377.652344 
z"/>
<path fill="#4E7FA6" opacity="1.000000" stroke="none" 
	d="
M82.690659,323.310638 
	C86.743042,319.611084 90.716583,315.156006 95.593300,312.181793 
	C101.472878,308.595947 107.954002,305.786438 114.484764,303.543640 
	C119.880363,301.690674 125.707283,300.341003 131.377869,300.203583 
	C142.045258,299.945099 153.000229,299.403961 163.341187,301.463257 
	C172.494736,303.286102 181.104080,308.213593 189.701950,312.300110 
	C194.091370,314.386292 197.761978,317.958008 202.100769,320.191467 
	C203.729324,321.029785 207.029785,320.787384 208.356247,319.638550 
	C212.312897,316.211761 215.955063,312.307953 219.114258,308.132111 
	C220.322601,306.534912 219.889648,303.695984 220.299805,301.026001 
	C222.083344,301.893646 223.771744,303.158264 225.331329,304.326416 
	C218.377045,311.226166 211.715424,317.835541 204.804794,324.691986 
	C201.113800,321.987427 197.033966,318.593597 192.578842,315.797760 
	C158.228271,294.241028 116.510521,296.714325 84.635704,322.060333 
	C84.117241,322.472595 83.554192,322.828796 82.690659,323.310638 
z"/>
<path fill="#4E7FA6" opacity="1.000000" stroke="none" 
	d="
M54.866512,505.555817 
	C57.473808,506.662445 60.333015,507.884552 62.930637,509.521729 
	C66.014030,511.465088 68.544441,510.958893 70.966621,508.538635 
	C73.678055,505.829285 76.514328,503.231232 79.061630,500.375488 
	C81.163467,498.019073 83.292625,497.644531 86.144600,498.878754 
	C93.116684,501.895996 99.971077,505.441376 107.238281,507.455902 
	C116.396370,509.994598 125.847839,512.021606 135.297150,512.849426 
	C155.006943,514.576294 174.004501,510.303101 192.011536,502.629272 
	C200.456772,499.030304 207.971024,493.248962 215.917114,488.473175 
	C216.751648,487.971619 217.653702,487.582428 218.894196,487.195923 
	C209.657669,496.288300 198.183655,502.284912 185.978027,506.741058 
	C152.228043,519.062927 119.106880,517.429321 86.950584,501.127289 
	C83.884209,499.572723 82.068062,499.699249 79.766357,502.269623 
	C76.112846,506.349579 72.056549,510.069336 68.152527,513.923157 
	C67.939362,514.133545 67.560249,514.175842 66.716850,514.512695 
	C62.976070,511.748016 58.989346,508.801544 54.866512,505.555817 
z"/>
<path fill="#4E7FA6" opacity="1.000000" stroke="none" 
	d="
M152.550262,485.370056 
	C152.263535,485.957611 151.490646,486.942963 150.769562,486.906403 
	C139.884262,486.354706 128.461395,487.555511 118.243073,484.607361 
	C99.113518,479.088196 82.777199,468.256409 69.665016,452.660919 
	C59.508961,440.581329 54.223209,426.426727 50.671818,411.632385 
	C48.964176,404.518677 50.082726,396.726593 50.280941,389.109131 
	C50.654415,401.528534 52.010471,413.871155 56.529644,425.694397 
	C71.750999,465.517059 109.297173,488.924377 152.550262,485.370056 
z"/>
<path fill="#4E7FA6" opacity="1.000000" stroke="none" 
	d="
M220.246033,300.377014 
	C216.103455,298.230255 211.706802,295.975555 207.595078,293.285370 
	C191.716476,282.896423 174.343170,277.221924 155.519562,274.807861 
	C138.539658,272.630310 122.228477,275.347015 105.998451,279.307831 
	C100.988762,280.530396 96.534668,283.878021 91.618668,285.689453 
	C88.351830,286.893188 85.167084,289.978638 81.252426,287.056824 
	C83.901138,286.038849 86.667580,285.776642 89.060890,284.691467 
	C133.829544,264.392639 176.196884,268.736847 216.292206,296.892731 
	C217.645325,297.842926 218.849335,299.005463 220.246033,300.377014 
z"/>
<path fill="#2E313A" opacity="1.000000" stroke="none" 
	d="
M355.876038,434.518066 
	C355.189087,433.801971 354.078186,432.628418 354.074921,431.451752 
	C353.982483,398.257202 353.994232,365.062317 354.044373,331.867554 
	C354.045685,330.997040 354.664825,330.127472 355.369568,329.140686 
	C355.818970,346.111206 355.925934,363.198395 355.961853,380.285736 
	C355.999542,398.210114 355.968994,416.134644 355.876038,434.518066 
z"/>
<path fill="#4E7FA6" opacity="1.000000" stroke="none" 
	d="
M50.870934,386.580658 
	C47.975677,378.784302 51.728096,371.396118 53.991329,364.001953 
	C58.497047,349.281433 65.790390,336.093048 77.677856,325.875610 
	C78.879066,324.843170 80.321358,324.091217 82.011993,323.332153 
	C71.829552,333.779175 62.333416,344.985718 57.553234,359.143127 
	C54.596394,367.900421 53.120644,377.157806 50.870934,386.580658 
z"/>
<path fill="#44779B" opacity="1.000000" stroke="none" 
	d="
M106.027130,454.404388 
	C109.493874,455.541901 113.336479,456.610229 116.728493,458.491150 
	C120.001671,460.306183 121.944778,459.621094 124.495377,457.155548 
	C129.852951,451.976654 135.574707,447.167572 141.262283,442.342621 
	C142.461426,441.325317 144.155807,440.891846 145.995178,440.299866 
	C138.834045,447.096741 131.379730,453.878082 123.679649,460.367737 
	C122.517250,461.347443 119.904198,461.684570 118.488213,461.082245 
	C114.253990,459.281128 110.280922,456.866028 106.027130,454.404388 
z"/>
<path fill="#4E7FA6" opacity="1.000000" stroke="none" 
	d="
M53.888371,475.519470 
	C55.810276,476.884338 58.899918,478.246368 59.560005,480.365204 
	C60.093903,482.079041 58.218956,485.263184 56.522205,486.832458 
	C47.169277,495.482666 47.075493,495.381256 54.792160,504.927277 
	C51.403629,502.689636 48.057941,500.091309 43.335339,496.423645 
	C49.267521,491.525757 54.559319,487.156586 59.922199,482.728729 
	C57.210327,479.572479 55.608364,477.708008 53.888371,475.519470 
z"/>
<path fill="#44779B" opacity="1.000000" stroke="none" 
	d="
M101.687073,337.151459 
	C99.889397,342.512573 102.894051,345.833282 106.617317,349.244049 
	C110.873108,353.142639 114.667351,357.545074 118.615417,362.089417 
	C111.272217,355.705292 103.975746,348.960327 96.179550,341.753387 
	C98.227318,339.972931 99.795135,338.609772 101.687073,337.151459 
z"/>
<path fill="#4E7FA6" opacity="1.000000" stroke="none" 
	d="
M190.494293,472.809387 
	C186.508926,475.413269 182.448181,478.890869 177.745895,480.548248 
	C170.946701,482.944763 163.682816,484.022827 156.333939,485.406006 
	C167.980850,482.636810 179.507172,479.004089 190.494293,472.809387 
z"/>
<path fill="#4E7FA6" opacity="1.000000" stroke="none" 
	d="
M214.067139,470.549561 
	C212.574615,469.870056 210.719238,469.127655 209.430359,467.824860 
	C206.381760,464.743225 203.868118,464.890259 200.575119,467.727203 
	C197.996368,469.948883 194.607880,471.230713 191.179474,472.861450 
	C195.609039,469.153015 200.438278,465.513214 205.814392,461.461273 
	C208.600220,464.460236 211.281006,467.346100 214.067139,470.549561 
z"/>
<path fill="#44779B" opacity="1.000000" stroke="none" 
	d="
M152.884979,352.685944 
	C148.878281,350.557892 144.390900,348.543854 140.617813,345.610901 
	C136.814133,342.654205 133.719727,338.785034 130.320160,334.950562 
	C137.789688,340.522583 145.253632,346.459747 152.884979,352.685944 
z"/>
<path fill="#44779B" opacity="1.000000" stroke="none" 
	d="
M128.199768,332.353424 
	C127.017090,332.305481 124.921715,332.352234 124.512497,331.544647 
	C122.495461,327.563843 120.067177,328.249817 116.888611,329.981750 
	C112.882500,332.164612 108.647263,333.926941 104.132660,335.827637 
	C108.993820,332.779175 114.037964,329.330902 119.534180,326.908264 
	C123.949638,324.961975 125.226730,330.249634 128.199768,332.353424 
z"/>
<path fill="#4E7FA6" opacity="1.000000" stroke="none" 
	d="
M220.664841,486.310913 
	C221.375092,481.662994 221.024521,477.477234 216.275940,474.654175 
	C215.284744,474.064911 214.810181,472.606598 214.114899,471.188080 
	C217.933243,474.365417 221.734222,477.903442 225.991745,481.866425 
	C224.082596,483.526184 222.532288,484.873993 220.664841,486.310913 
z"/>
<path fill="#2E313A" opacity="1.000000" stroke="none" 
	d="
M352.515961,326.251312 
	C351.597443,326.896057 350.232239,327.885895 348.841187,327.923706 
	C342.535004,328.095062 336.221527,327.997772 329.440063,327.994324 
	C330.175293,327.374695 331.367828,326.257294 332.589233,326.224823 
	C339.074615,326.052490 345.567230,326.152405 352.515961,326.251312 
z"/>
<path fill="#4E7FA6" opacity="1.000000" stroke="none" 
	d="
M77.205429,282.327026 
	C75.845337,281.875580 73.898796,281.486389 72.966690,280.300110 
	C70.139397,276.701904 66.851082,275.311340 62.058525,276.703888 
	C66.989807,271.795868 66.994385,271.791321 71.957024,276.781433 
	C73.680504,278.514465 75.375076,280.276184 77.205429,282.327026 
z"/>
<path fill="#44779B" opacity="1.000000" stroke="none" 
	d="
M104.178818,439.692871 
	C103.228775,441.651337 101.978760,443.724884 100.328453,446.462402 
	C101.510277,448.124634 103.109398,450.373840 104.752266,452.979187 
	C102.141464,451.464874 99.486923,449.594421 96.052452,447.174377 
	C98.988716,444.410675 101.433777,442.109314 104.178818,439.692871 
z"/>
<path fill="#44779B" opacity="1.000000" stroke="none" 
	d="
M122.239990,366.254364 
	C124.379013,367.739685 126.660652,369.519440 128.974335,371.647705 
	C126.798439,370.180420 124.590523,368.364594 122.239990,366.254364 
z"/>
<path fill="#4E7FA6" opacity="1.000000" stroke="none" 
	d="
M81.206696,286.378296 
	C78.455154,287.496490 77.535011,285.836090 77.273331,283.058716 
	C78.608490,283.805511 79.854065,284.941864 81.206696,286.378296 
z"/>
<path fill="#44779B" opacity="1.000000" stroke="none" 
	d="
M129.162415,372.276947 
	C130.646194,373.092773 132.289276,374.191803 133.960587,375.646454 
	C132.433121,374.854767 130.877426,373.707458 129.162415,372.276947 
z"/>
<path fill="#44779B" opacity="1.000000" stroke="none" 
	d="
M116.716904,427.322510 
	C116.117371,428.406128 115.231590,429.603333 113.977676,430.682617 
	C114.549911,429.521851 115.490288,428.478973 116.716904,427.322510 
z"/>
<path fill="#44779B" opacity="1.000000" stroke="none" 
	d="
M134.137573,376.270447 
	C134.557037,376.243958 135.114395,376.477081 135.735718,377.023590 
	C135.291611,377.067993 134.783524,376.799042 134.137573,376.270447 
z"/>
<path fill="#44779B" opacity="1.000000" stroke="none" 
	d="
M103.567825,335.764984 
	C103.464569,336.129303 103.069481,336.537933 102.367920,336.980194 
	C102.466293,336.612305 102.871140,336.210815 103.567825,335.764984 
z"/>
<path fill="#44779B" opacity="1.000000" stroke="none" 
	d="
M120.659485,364.597168 
	C121.043121,364.643066 121.495850,364.965454 121.993156,365.597565 
	C121.601349,365.562744 121.164963,365.218231 120.659485,364.597168 
z"/>
<path fill="#44779B" opacity="1.000000" stroke="none" 
	d="
M109.757507,434.129761 
	C109.751724,434.559387 109.484215,435.102203 108.891190,435.618652 
	C108.875710,435.142456 109.185745,434.692688 109.757507,434.129761 
z"/>
<path fill="#44779B" opacity="1.000000" stroke="none" 
	d="
M111.442947,432.663086 
	C111.373947,433.062469 111.012985,433.507080 110.334320,433.985443 
	C110.394737,433.582214 110.772858,433.145264 111.442947,432.663086 
z"/>
<path fill="#44779B" opacity="1.000000" stroke="none" 
	d="
M107.325150,436.671906 
	C107.453911,436.957306 107.333267,437.304382 106.904617,437.627075 
	C106.756317,437.312958 106.916031,437.023285 107.325150,436.671906 
z"/>
<path fill="#44779B" opacity="1.000000" stroke="none" 
	d="
M106.335976,437.667145 
	C106.465225,437.950287 106.341042,438.301025 105.906845,438.635590 
	C105.758728,438.324524 105.920639,438.029633 106.335976,437.667145 
z"/>
<path fill="#44779B" opacity="1.000000" stroke="none" 
	d="
M105.346741,438.668213 
	C105.474030,438.951050 105.346970,439.301514 104.910057,439.636902 
	C104.764267,439.326477 104.928337,439.031189 105.346741,438.668213 
z"/>
<path fill="#44779B" opacity="1.000000" stroke="none" 
	d="
M108.328964,435.670746 
	C108.459526,435.958862 108.340965,436.304993 107.915756,436.620880 
	C107.766022,436.303345 107.922935,436.016052 108.328964,435.670746 
z"/>
<path fill="#44779B" opacity="1.000000" stroke="none" 
	d="
M104.812996,453.478516 
	C105.046776,453.356110 105.385620,453.496002 105.827606,453.903198 
	C105.593178,454.027252 105.255623,453.884033 104.812996,453.478516 
z"/>
<path fill="#44779B" opacity="1.000000" stroke="none" 
	d="
M119.692596,363.600769 
	C119.973137,363.476990 120.322128,363.618958 120.678299,364.068970 
	C120.377342,364.206879 120.069206,364.036682 119.692596,363.600769 
z"/>
<path fill="#44779B" opacity="1.000000" stroke="none" 
	d="
M118.676895,362.684143 
	C118.959274,362.541290 119.312668,362.655090 119.672050,363.077942 
	C119.368004,363.238251 119.057953,363.089539 118.676895,362.684143 
z"/>
<path fill="#44779B" opacity="1.000000" stroke="none" 
	d="
M112.452438,431.720886 
	C112.572784,432.004059 112.418030,432.345886 111.960648,432.707153 
	C111.831123,432.410889 112.004234,432.095215 112.452438,431.720886 
z"/>
<path fill="#44779B" opacity="1.000000" stroke="none" 
	d="
M130.295624,334.402893 
	C130.025757,334.527008 129.674820,334.388702 129.298233,333.944855 
	C129.586578,333.806366 129.900574,333.973419 130.295624,334.402893 
z"/>
<path fill="#44779B" opacity="1.000000" stroke="none" 
	d="
M129.264404,333.454651 
	C129.004578,333.565338 128.659775,333.412201 128.281860,332.957336 
	C128.558960,332.834015 128.869186,333.012421 129.264404,333.454651 
z"/>
<path fill="#4E7FA6" opacity="1.000000" stroke="none" 
	d="
M219.459824,487.223755 
	C219.385529,486.965149 219.574646,486.648743 220.059082,486.338257 
	C220.143997,486.618103 219.933624,486.892029 219.459824,487.223755 
z"/>
<path fill="#44779B" opacity="1.000000" stroke="none" 
	d="
M113.399826,430.704407 
	C113.535080,430.981079 113.401085,431.331848 112.964020,431.713654 
	C112.817497,431.422638 112.974037,431.100555 113.399826,430.704407 
z"/>
<path fill="#FDFDFD" opacity="1.000000" stroke="none" 
	d="
M486.486084,365.520508 
	C498.307037,352.585510 515.853882,348.346619 531.931335,354.328827 
	C546.658936,359.808777 556.721680,374.889008 557.209717,391.814545 
	C557.480652,401.210846 555.826172,410.071625 550.731384,418.059326 
	C541.132874,433.108093 523.638611,439.560638 505.704132,434.806030 
	C489.761078,430.579376 477.915009,415.556244 476.853485,398.535553 
	C476.100342,386.459534 478.377441,375.345886 486.486084,365.520508 
z"/>
<path fill="#F6F7F6" opacity="1.000000" stroke="none" 
	d="
M1145.104370,408.921570 
	C1151.144775,393.788239 1157.061279,379.006317 1163.443848,363.060333 
	C1170.178101,380.347656 1176.502808,396.583710 1183.021729,413.318054 
	C1169.756470,413.318054 1156.922729,413.318054 1143.635376,413.318054 
	C1144.086914,411.960114 1144.533691,410.616547 1145.104370,408.921570 
z"/>
</svg>