<svg width="312" height="1237" viewBox="0 0 312 1237" fill="none" xmlns="http://www.w3.org/2000/svg">
<g opacity="0.05">
<rect x="39.6156" y="1194.82" width="40.2587" height="32.8215" transform="rotate(-90 39.6156 1194.82)" fill="#3A8DEB" stroke="black" stroke-width="1.2"/>
<rect x="73.6313" y="1194.82" width="40.2587" height="32.8215" transform="rotate(-90 73.6313 1194.82)" fill="#3A8DEB" stroke="black" stroke-width="1.2"/>
<rect x="39.6" y="1236.29" width="40.2587" height="32.8215" transform="rotate(-90 39.6 1236.29)" fill="#3A8DEB" stroke="black" stroke-width="1.2"/>
<rect x="39.6313" y="1153.86" width="40.2587" height="32.8215" transform="rotate(-90 39.6313 1153.86)" fill="#3A8DEB" stroke="black" stroke-width="1.2"/>
</g>
<g opacity="0.05">
<rect x="268.6" y="899.6" width="41.8227" height="38.1701" fill="#B1D34A" stroke="black" stroke-width="1.2"/>
<rect x="268.6" y="937.424" width="41.8227" height="38.1701" fill="#B1D34A" stroke="black" stroke-width="1.2"/>
<rect x="268.6" y="975.094" width="41.8227" height="38.1701" fill="#B1D34A" stroke="black" stroke-width="1.2"/>
<rect x="268.6" y="1012.99" width="41.8227" height="38.1701" fill="#B1D34A" stroke="black" stroke-width="1.2"/>
</g>
<g opacity="0.05">
<rect x="-0.601455" y="0.59822" width="25.1354" height="21.5955" transform="matrix(-0.00242902 0.999997 -0.999996 -0.00296319 66.6281 91.3987)" fill="#B1D34A" stroke="black" stroke-width="1.2"/>
<rect x="-0.601455" y="0.59822" width="25.1354" height="21.5955" transform="matrix(-0.00242902 0.999997 -0.999996 -0.00296319 44.7297 91.3343)" fill="#B1D34A" stroke="black" stroke-width="1.2"/>
<rect x="-0.601455" y="0.59822" width="25.1354" height="21.5955" transform="matrix(-0.00242902 0.999997 -0.999996 -0.00296319 22.9172 91.2698)" fill="#B1D34A" stroke="black" stroke-width="1.2"/>
<rect x="-0.601455" y="0.59822" width="25.1354" height="21.5955" transform="matrix(-0.00242902 0.999997 -0.999996 -0.00296319 22.8547 116.551)" fill="#B1D34A" stroke="black" stroke-width="1.2"/>
</g>
<g opacity="0.05">
<rect x="-0.597543" y="-0.602983" width="40.9758" height="45.5367" transform="matrix(-0.999988 -0.00498064 0.00408281 -0.999992 304.471 135.559)" fill="#B1D34A" stroke="black" stroke-width="1.2"/>
<rect x="-0.597543" y="-0.602983" width="40.9758" height="45.5367" transform="matrix(-0.999988 -0.00498064 0.00408281 -0.999992 304.651 90.6582)" fill="#B1D34A" stroke="black" stroke-width="1.2"/>
<rect x="-0.597543" y="-0.602983" width="40.9758" height="45.5367" transform="matrix(-0.999988 -0.00498064 0.00408281 -0.999992 304.831 45.9395)" fill="#B1D34A" stroke="black" stroke-width="1.2"/>
<rect x="-0.597543" y="-0.602983" width="40.9758" height="45.5367" transform="matrix(-0.999988 -0.00498064 0.00408281 -0.999992 264.346 45.7383)" fill="#B1D34A" stroke="black" stroke-width="1.2"/>
</g>
<g opacity="0.05">
<rect x="223.194" y="565.621" width="43.3741" height="39.3431" fill="#3A8DEB" stroke="black" stroke-width="1.2"/>
<rect x="223.186" y="606.161" width="43.3741" height="39.3431" fill="#3A8DEB" stroke="black" stroke-width="1.2"/>
<rect x="178.6" y="565.6" width="43.3741" height="39.3431" fill="#3A8DEB" stroke="black" stroke-width="1.2"/>
<rect x="267.233" y="565.637" width="43.3741" height="39.3431" fill="#3A8DEB" stroke="black" stroke-width="1.2"/>
</g>
<g opacity="0.05">
<rect x="45.6" y="692.6" width="31.7277" height="43.0641" fill="#9741A3" stroke="black" stroke-width="1.2"/>
<rect x="45.6" y="735.125" width="31.7277" height="43.0641" fill="#9741A3" stroke="black" stroke-width="1.2"/>
<rect x="45.6" y="777.479" width="31.7277" height="43.0641" fill="#9741A3" stroke="black" stroke-width="1.2"/>
<rect x="77.2094" y="777.479" width="31.7277" height="43.0641" fill="#9741A3" stroke="black" stroke-width="1.2"/>
</g>
<g opacity="0.05">
<rect x="142.541" y="279.319" width="34.5091" height="35.3732" transform="rotate(90 142.541 279.319)" fill="#9741A3" stroke="black" stroke-width="1.2"/>
<rect x="105.97" y="279.317" width="34.5091" height="35.3732" transform="rotate(90 105.97 279.317)" fill="#9741A3" stroke="black" stroke-width="1.2"/>
<rect x="142.556" y="243.6" width="34.5091" height="35.3732" transform="rotate(90 142.556 243.6)" fill="#9741A3" stroke="black" stroke-width="1.2"/>
<rect x="142.525" y="314.6" width="34.5091" height="35.3732" transform="rotate(90 142.525 314.6)" fill="#9741A3" stroke="black" stroke-width="1.2"/>
</g>
</svg>
