<svg width="1446" height="2741" viewBox="0 0 1446 2741" fill="none" xmlns="http://www.w3.org/2000/svg">
<g opacity="0.05">
<rect x="135.875" y="2584.12" width="151.428" height="136.968" transform="rotate(-90 135.875 2584.12)" fill="#3A8DEB" stroke="black" stroke-width="3"/>
<rect x="275.836" y="2584.13" width="151.428" height="136.968" transform="rotate(-90 275.836 2584.13)" fill="#3A8DEB" stroke="black" stroke-width="3"/>
<rect x="135.805" y="2738.6" width="151.428" height="136.968" transform="rotate(-90 135.805 2738.6)" fill="#3A8DEB" stroke="black" stroke-width="3"/>
<rect x="135.938" y="2431.55" width="151.428" height="136.968" transform="rotate(-90 135.938 2431.55)" fill="#3A8DEB" stroke="black" stroke-width="3"/>
</g>
<g opacity="0.05">
<rect x="1221.8" y="2015.12" width="174" height="143.648" fill="#B1D34A" stroke="black" stroke-width="3"/>
<rect x="1221.8" y="2156.01" width="174" height="143.648" fill="#B1D34A" stroke="black" stroke-width="3"/>
<rect x="1221.8" y="2296.32" width="174" height="143.648" fill="#B1D34A" stroke="black" stroke-width="3"/>
<rect x="1221.8" y="2437.5" width="174" height="143.648" fill="#B1D34A" stroke="black" stroke-width="3"/>
</g>
<g opacity="0.05">
<rect x="316.933" y="63.8475" width="95.0962" height="90.7831" transform="rotate(90.1537 316.933 63.8475)" fill="#B1D34A" stroke="black" stroke-width="3"/>
<rect x="226.84" y="63.6073" width="95.0962" height="90.7831" transform="rotate(90.1537 226.84 63.6073)" fill="#B1D34A" stroke="black" stroke-width="3"/>
<rect x="137.098" y="63.3671" width="95.0962" height="90.7831" transform="rotate(90.1537 137.098 63.3671)" fill="#B1D34A" stroke="black" stroke-width="3"/>
<rect x="136.848" y="157.535" width="95.0962" height="90.7831" transform="rotate(90.1537 136.848 157.535)" fill="#B1D34A" stroke="black" stroke-width="3"/>
</g>
<g opacity="0.05">
<rect x="1375.52" y="507.931" width="170.515" height="171.089" transform="rotate(-179.742 1375.52 507.931)" fill="#B1D34A" stroke="black" stroke-width="3"/>
<rect x="1376.28" y="340.681" width="170.515" height="171.089" transform="rotate(-179.742 1376.28 340.681)" fill="#B1D34A" stroke="black" stroke-width="3"/>
<rect x="1377.03" y="174.112" width="170.515" height="171.089" transform="rotate(-179.742 1377.03 174.112)" fill="#B1D34A" stroke="black" stroke-width="3"/>
<rect x="1210.46" y="173.362" width="170.515" height="171.089" transform="rotate(-179.742 1210.46 173.362)" fill="#B1D34A" stroke="black" stroke-width="3"/>
</g>
<g opacity="0.05">
<rect x="1082.24" y="1114.2" width="180.383" height="148.018" fill="#3A8DEB" stroke="black" stroke-width="3"/>
<rect x="1082.23" y="1265.21" width="180.383" height="148.018" fill="#3A8DEB" stroke="black" stroke-width="3"/>
<rect x="898.805" y="1114.12" width="180.383" height="148.018" fill="#3A8DEB" stroke="black" stroke-width="3"/>
<rect x="1263.42" y="1114.26" width="180.383" height="148.018" fill="#3A8DEB" stroke="black" stroke-width="3"/>
</g>
<g opacity="0.05">
<rect x="1.5" y="1419.21" width="132.468" height="161.878" fill="#9741A3" stroke="black" stroke-width="3"/>
<rect x="1.50781" y="1577.61" width="132.468" height="161.878" fill="#9741A3" stroke="black" stroke-width="3"/>
<rect x="1.5" y="1735.37" width="132.468" height="161.878" fill="#9741A3" stroke="black" stroke-width="3"/>
<rect x="131.547" y="1735.37" width="132.468" height="161.878" fill="#9741A3" stroke="black" stroke-width="3"/>
</g>
<g opacity="0.05">
<rect x="627.734" y="644.168" width="130.012" height="147.466" transform="rotate(90 627.734 644.168)" fill="#9741A3" stroke="black" stroke-width="3"/>
<rect x="477.273" y="644.16" width="130.012" height="147.466" transform="rotate(90 477.273 644.16)" fill="#9741A3" stroke="black" stroke-width="3"/>
<rect x="627.812" y="511.117" width="130.012" height="147.466" transform="rotate(90 627.812 511.117)" fill="#9741A3" stroke="black" stroke-width="3"/>
<rect x="627.672" y="775.584" width="130.012" height="147.466" transform="rotate(90 627.672 775.584)" fill="#9741A3" stroke="black" stroke-width="3"/>
</g>
</svg>
